<?xml version="1.0" standalone="no"?>
<!DOCTYPE svg PUBLIC "-//W3C//DTD SVG 1.1//EN" "http://www.w3.org/Graphics/SVG/1.1/DTD/svg11.dtd">
<svg xmlns="http://www.w3.org/2000/svg" id="Layer_2" width="3321.550048828125" height="1843.3699951171875" viewBox="0 0 3321.55 1843.37"><defs><style>.cls-1{fill:#00bf63;}.cls-2{fill:#7ed957;}.cls-3{fill:#371f13;}.cls-4{fill:#5ce1e6;}</style></defs><g id="Layer_2-2"><g id="Layer_1-2"><rect class="cls-2" y="826.43" width="3321.55" height="1016.94"/><polyline class="cls-2" points="473.53 198.29 357.42 489.77 598.8 490.48"/><polyline class="cls-2" points="764.05 311.46 696.88 476.29 836.52 476.69"/><polyline class="cls-2" points="2724.94 23.49 2490.6 526.02 2935.97 527.17"/><polyline class="cls-2" points="3162.63 276.76 3021.1 586.16 3290.66 586.16"/><path class="cls-2" d="M2348.67,797.56l913.29,30.09s-536.73-373.81-913.29-30.09Z"/><path class="cls-2" d="M34.4,845.58l1512.3,16.78s-112.3-27.24-309.46-74.6c-114.34-27.47-238.29-98.77-343.82-153.24C602,484.11,34.4,845.58,34.4,845.58Z"/><polyline class="cls-2" points="833.69 607.94 1077.52 716.47 2187.93 704.23 1704.18 311.46 1488.12 522.85 1203.86 246.84 833.69 607.94"/><path class="cls-4" d="M1096.84,713.61l1349.78-3.11-139.43,91.43,857.19,16.61-641.8,89.48,531.12,124.76-723.36-40.27c-158.43-4.74-284.28-3.27-377.56,4.39-80.13,6.32-155.37,19.56-225.73,39.73-82.28,23.24-177.86,57.28-295.32,110.58-147.8-98.6-278.99-153.61-384.99-173.46-100.28-25.11-282.8-33.34-547.56-24.68,56.57-45.04,143.28-72.66,260.13-82.84,101.04-12.39,341.16-18.65,720.36-18.77l-211.98-57.75-170.85-76.08"/><path class="cls-1" d="M1697.6,314.87l-198.12,184.45c33.51,35.16,67.02,70.32,100.53,105.48l97.59-289.93"/><path class="cls-1" d="M1211.51,250.96l-377.82,356.98c81.27,36.18,162.55,72.35,243.83,108.53-18.95-49.68-37.91-99.36-56.86-149.04,56.66-56.56,113.31-113.11,169.97-169.67l20.88-146.8"/><path class="cls-1" d="M1883.98,1006.28l-9.12,19.39c-27.65,58.29-43.64,100.86-48,127.72-7.08,33.57-2.17,60.31,14.74,80.23,7.17,7.86,16.5,14.62,28,20.3l18.58,7.85c13.38,4.74,28.33,8.69,44.85,11.85,40.53,8.29,109.4,13.81,206.63,16.57-81.13,11.04-144.68,16.6-190.63,16.67-46.09-.77-73.87-2.16-83.35-4.16-18.69-2.09-37.53-5.15-56.5-9.19-75.55-13.65-193.16-63.59-352.85-149.81l427.65-137.41"/><path class="cls-1" d="M617.53,594.09l-32.17,10.75c-142.09,46.63-247.7,85.68-316.81,117.13-63.52,28.01-130.06,69.22-199.63,123.61l624.31-3.32c-89.57-17.94-152.98-32.76-190.23-44.47-37.16-11.39-57.72-23.43-61.68-36.13-3.91-10.77,1.74-24.77,16.97-42l159.25-125.57"/><path class="cls-1" d="M2726.31,638.88l-18.88,4.31c-82.55,17.94-148.34,37.19-197.38,57.75-44.16,17.7-102.44,52.26-174.82,103.67l511.79-.56c-75.32-14.49-122.45-24.73-141.41-30.7-24.92-6.62-40.99-14.71-48.2-24.28-2.66-3.26-4.2-8.64-4.65-16.13l73.55-94.06"/><path class="cls-3" d="M2724.94,552.3l-.3,94.18c-.03,9.39-7.67,16.98-17.06,16.95s-16.98-7.67-16.95-17.06l.3-94.18c.03-9.39,7.66-16.98,17.06-16.96,9.39,.04,16.98,7.68,16.95,17.07Z"/><path class="cls-3" d="M491.31,495.57l.41,132.52c.03,9.39-7.56,17.03-16.96,17.06-9.39,.03-17.03-7.56-17.06-16.96l-.41-132.51c-.03-9.4,7.56-17.04,16.96-17.06,9.39-.03,17.03,7.56,17.06,16.95Z"/><path class="cls-3" d="M779.81,492.87l-.39,97.57c-.04,9.39-7.69,16.97-17.08,16.93-9.39-.03-16.97-7.68-16.94-17.07l.4-97.56c.03-9.4,7.68-16.98,17.07-16.94s16.98,7.68,16.94,17.07Z"/><path class="cls-3" d="M3171.34,595.3l1.57,166.17c.09,9.39-7.45,17.08-16.85,17.17-9.39,.09-17.08-7.46-17.17-16.85l-1.57-166.17c-.09-9.39,7.45-17.08,16.84-17.17,9.4-.09,17.09,7.45,17.18,16.85Z"/><path class="cls-1" d="M470.86,216.17l-115.95,279.68,120.39-7.85-25.64-80.23,36.14-103.85-14.95-87.75"/><path class="cls-1" d="M769.34,330.92l-14.45,151.37c-18.04-1.93-36.07-3.87-54.11-5.8l68.56-145.57"/><path class="cls-1" d="M2718.82,51.63l-19.14,198.41,27.19,114.81-75.53,50.36,54.38,108.77-208.47-9.07,221.57-463.28"/><path class="cls-1" d="M3155.71,304.48l-4.36,269.44c-35.91,.6-71.82,1.21-107.74,1.81l112.1-271.25"/><path class="cls-3" d="M2735.9,23.89l-226.38,511.4-15.45-23.9,438.42,2.44-15.81,23.5L2704.62,23.49l31.27,.4m-31.1-13.77c2.75-6.23,8.96-10.21,15.77-10.12,6.8,.09,12.91,4.22,15.5,10.52l212.05,513.83c2.18,5.27,1.57,11.27-1.61,15.99s-8.51,7.54-14.2,7.51l-438.44-2.44c-5.73-.03-11.06-2.95-14.18-7.77-3.12-4.81-3.59-10.87-1.27-16.12L2704.8,10.12h-.01Z"/><path class="cls-3" d="M489.27,198.29l-123.99,303-16.03-23.45,252.63-4.28-15.33,23.73L457.91,198.57l31.36-.28m-31.48-12.88c2.59-6.34,8.74-10.51,15.59-10.57,6.85-.06,13.07,3.99,15.78,10.28l128.64,298.71c2.24,5.21,1.74,11.19-1.34,15.96-3.08,4.76-8.33,7.68-14,7.77l-252.63,4.3c-5.71,.09-11.1-2.69-14.33-7.41-3.23-4.72-3.87-10.75-1.7-16.04l123.99-303h0Z"/><path class="cls-3" d="M781.68,309.6l-73.27,179.45-15.45-23.44,135.57,2.35-16.38,22.52-62.3-181.8,31.83,.92m-31.49-12.86c2.68-6.56,9.15-10.78,16.24-10.57,7.08,.2,13.3,4.78,15.6,11.48l62.29,181.81c1.8,5.24,.93,11.03-2.33,15.52-3.26,4.48-8.51,7.09-14.05,7l-135.57-2.36c-5.61-.09-10.81-2.95-13.9-7.64-3.09-4.68-3.67-10.59-1.55-15.79l73.27-179.45h0Z"/><path class="cls-3" d="M3176.62,276.68l-140.03,317.48-15.49-23.87,266.88,1.1-15.87,23.3-126.85-318.58,31.36,.57m-31.12-13.73c2.76-6.27,9.02-10.27,15.87-10.14,6.85,.12,12.96,4.35,15.49,10.71l126.85,318.59c2.09,5.25,1.44,11.19-1.74,15.86-3.19,4.67-8.48,7.46-14.13,7.43l-266.88-1.1c-5.74-.02-11.07-2.94-14.2-7.75-3.12-4.81-3.61-10.87-1.29-16.12l140.03-317.48h0Z"/><path class="cls-3" d="M813.14,602.3l381.91-366.87c6.54-6.29,16.87-6.33,23.46-.1l375.97,355.23c6.82,6.46,7.13,17.22,.68,24.05-6.45,6.82-17.22,7.13-24.05,.68l-375.96-355.23,23.47-.1-381.92,366.87c-6.77,6.5-14.84,2.99-21.35-3.79-6.5-6.77-8.99-14.24-2.21-20.74h0Z"/><path class="cls-3" d="M1509.66,527.87c-7.43,3.86-16.58,1.73-21.54-5.02s-4.27-16.12,1.64-22.06l197.52-198.77c6.18-6.21,16.07-6.72,22.85-1.16l476.55,390.53-10.79-3.85,311.13-.22c9.36-.01,16.97,7.55,17.01,16.92,.05,9.37-7.48,17.01-16.84,17.09l-1412.62,13.11c-9.39,.09-17.08-7.46-17.17-16.85-.08-9.39,7.46-17.07,16.85-17.16l1412.62-13.11,.17,34.01-311.13,.23c-3.93,0-7.75-1.37-10.79-3.86l-476.55-390.53,22.84-1.17-197.52,198.77-19.91-27.09c8.34-4.32,18.61-1.08,22.94,7.26,4.32,8.33,1.08,18.6-7.26,22.93h0Z"/><path class="cls-3" d="M13.55,833.23c175.53-92.71,353.51-186.84,503.25-227.66,63.48-17.3,122.05-25.11,177.3-25.11,75.96,0,145.08,14.75,211.45,39.24,59.49,21.94,116.85,51.76,172.46,80.65,51.47,26.73,101.39,52.64,151.58,72.02,104.57,40.38,211.3,52.77,320.47,65.37,8.96,1.04,15.56,8.9,15.03,17.91-.54,9.01-8.03,16.03-17.05,16l-1526.63-6.38c-7.8-.03-14.58-5.37-16.45-12.95-1.86-7.58,1.67-15.45,8.57-19.1m15.89,30.08l-7.87-32.04,1526.62,6.37-2.02,33.9c-108.57-12.53-219.58-25.25-328.82-67.43-52.26-20.18-103.87-47.01-155.01-73.56-55.95-29.07-111.41-57.85-168.55-78.93-63.2-23.31-128.33-37.13-199.68-37.13-51.97,0-107.54,7.33-168.36,23.91-145.32,39.61-319.59,131.56-496.32,224.91h.01Z"/><path class="cls-3" d="M433.99,966l-3.05-33.88c201.09-15.72,405.23-31.8,638.66,36.47,132.9,38.88,274.97,105.03,406.56,166.27,99.21,46.17,192.27,89.45,272.37,117.24,185.14,64.24,301.16,45.7,419.7,26.77,9.28-1.48,18,4.84,19.48,14.11s-4.84,18-14.12,19.48c-120.25,19.2-243.04,38.8-436.21-28.23-82.08-28.48-176.85-72.6-275.57-118.54-132.16-61.5-271.8-126.44-401.76-164.46-226.73-66.32-425.06-50.95-626.45-35.21-9.29,.73-17.43-6.15-18.27-15.43s5.95-17.5,15.21-18.45c9.35-.95,17.7,5.85,18.64,15.2,.95,9.34-5.85,17.69-15.2,18.64v.02h.01Z"/><path class="cls-3" d="M2994.44,1320.34c-263.79-147.38-523.46-292.13-777.65-319.21-253.75-27.04-503.74,63.1-758.35,155.22-8.83,3.2-18.58-1.38-21.78-10.21-3.19-8.83,1.38-18.58,10.21-21.78,252.99-91.54,510.59-185.07,773.52-157.06,262.5,27.96,528.64,176.96,790.64,323.34,8.2,4.58,11.14,14.95,6.55,23.14-4.57,8.2-14.94,11.13-23.14,6.55h0Z"/><path class="cls-3" d="M3304.17,843.66l-976.51-21.59c-7.4-.17-13.84-5.09-15.94-12.19-2.1-7.09,.64-14.73,6.76-18.89,115.21-78.22,235.07-160.08,403.95-156.34,22.48,.49,45.71,2.5,69.56,5.79,153.78,21.21,337.85,96.5,518.99,170.47,7.59,3.1,11.89,11.18,10.21,19.21-1.66,8.02-8.82,13.72-17.02,13.54m.75-34.01l-6.81,32.75c-182.54-74.54-362.17-147.77-510.77-168.26-22.76-3.14-44.68-5.02-65.67-5.48-156.63-3.47-268.03,71.68-384.08,150.47l-9.18-31.07,976.51,21.59Z"/><path class="cls-3" d="M1963.34,789.34l-416.29,8.22c-9.39,.18-17.15-7.28-17.34-16.67-.18-9.39,7.28-17.16,16.67-17.34l416.28-8.23c9.39-.18,17.16,7.28,17.34,16.67,.19,9.4-7.27,17.16-16.66,17.35h0Z"/><path class="cls-3" d="M2244.43,855.32l-618.86,12.79c-9.39,.2-17.16-7.26-17.35-16.65-.2-9.39,7.26-17.16,16.65-17.36l618.86-12.79c9.39-.19,17.16,7.26,17.35,16.65,.2,9.39-7.26,17.16-16.65,17.36h0Z"/><path class="cls-3" d="M1809.16,932.94l-613.7,13.85c-9.39,.21-17.17-7.23-17.38-16.62s7.23-17.18,16.62-17.39l613.69-13.85c9.39-.21,17.18,7.23,17.39,16.62s-7.23,17.18-16.62,17.39h0Z"/><path class="cls-3" d="M1514.39,1013.03l-164.46,4.12c-9.39,.23-17.19-7.19-17.43-16.58-.23-9.39,7.19-17.19,16.58-17.43l164.45-4.12c9.4-.23,17.2,7.19,17.43,16.58,.24,9.39-7.18,17.19-16.57,17.43Z"/><path class="cls-3" d="M1640.59,1013.13l-46.74,1.96c-9.39,.39-17.32-6.89-17.71-16.28-.4-9.38,6.89-17.31,16.28-17.71l46.75-1.96c9.38-.39,17.31,6.89,17.7,16.28,.4,9.39-6.89,17.31-16.28,17.71Z"/><path class="cls-3" d="M2519.85,922.22l-140.54,1.27c-9.39,.08-17.07-7.46-17.16-16.86-.08-9.39,7.46-17.07,16.85-17.16l140.54-1.27c9.4-.09,17.08,7.46,17.17,16.85,.08,9.39-7.46,17.08-16.86,17.16h0Z"/></g></g></svg>